<?xml version="1.0" encoding="UTF-8"?>
<svg width="145px" height="77px" viewBox="0 0 145 77" version="1.1" xmlns="http://www.w3.org/2000/svg" xmlns:xlink="http://www.w3.org/1999/xlink">
    <!-- Generator: Sketch 52.5 (67469) - http://www.bohemiancoding.com/sketch -->
    <title>分组 3</title>
    <desc>Created with Sketch.</desc>
    <g id="Tokenomy" stroke="none" stroke-width="1" fill="none" fill-rule="evenodd">
        <g id="Pixel" transform="translate(-1120.000000, -601.000000)">
            <g id="分组-3" transform="translate(1120.000000, 601.000000)">
                <path d="M142.964556,1.13686838e-13 L145,1.13686838e-13 L145,12 C141.686292,12 139,14.6862915 139,18 C139,21.3137085 141.686292,24 145,24 L145,77 L0,77 L0,23.9170416 C0.325208474,23.9716012 0.65928779,24 1,24 C4.3137085,24 7,21.3137085 7,18 C7,14.6862915 4.3137085,12 1,12 C0.65928779,12 0.325208474,12.0283988 5.55111512e-16,12.0829584 L0,1.13686838e-13 L1.03544443,1.13686838e-13 C1.27805926,1.69614707 2.73676405,3 4.5,3 C6.26323595,3 7.72194074,1.69614707 7.96455557,1.13742349e-13 L10.0354444,1.13686838e-13 C10.2780593,1.69614707 11.736764,3 13.5,3 C15.263236,3 16.7219407,1.69614707 16.9645556,3.94156929e-13 L19.0354444,1.13686838e-13 C19.2780593,1.69614707 20.736764,3 22.5,3 C24.263236,3 25.7219407,1.69614707 25.9645556,1.13742349e-13 L28.0354444,1.13686838e-13 C28.2780593,1.69614707 29.736764,3 31.5,3 C33.263236,3 34.7219407,1.69614707 34.9645556,1.96842542e-13 L37.0354444,1.13686838e-13 C37.2780593,1.69614707 38.736764,3 40.5,3 C42.263236,3 43.7219407,1.69614707 43.9645556,1.13659082e-13 L46.0354444,1.13686838e-13 C46.2780593,1.69614707 47.736764,3 49.5,3 C51.263236,3 52.7219407,1.69614707 52.9645556,1.39110945e-13 L55.0354444,1.13686838e-13 C55.2780593,1.69614707 56.736764,3 58.5,3 C60.263236,3 61.7219407,1.69614707 61.9645556,1.13659082e-13 L64.0354444,1.13686838e-13 C64.2780593,1.69614707 65.736764,3 67.5,3 C69.263236,3 70.7219407,1.69614707 70.9645556,2.7314262e-13 L73.0354444,1.13686838e-13 C73.2780593,1.69614707 74.736764,3 76.5,3 C78.263236,3 79.7219407,1.69614707 79.9645556,1.13659082e-13 L82.0354444,1.13686838e-13 C82.2780593,1.69614707 83.736764,3 85.5,3 C87.263236,3 88.7219407,1.69614707 88.9645556,1.13659082e-13 L91.0354444,1.13686838e-13 C91.2780593,1.69614707 92.736764,3 94.5,3 C96.263236,3 97.7219407,1.69614707 97.9645556,1.11022302e-13 L100.035444,1.13686838e-13 C100.278059,1.69614707 101.736764,3 103.5,3 C105.263236,3 106.721941,1.69614707 106.964556,2.04419814e-13 L109.035444,1.13686838e-13 C109.278059,1.69614707 110.736764,3 112.5,3 C114.263236,3 115.721941,1.69614707 115.964556,1.13742349e-13 L118.035444,1.13686838e-13 C118.278059,1.69614707 119.736764,3 121.5,3 C123.263236,3 124.721941,1.69614707 124.964556,1.72750703e-13 L127.035444,1.13686838e-13 C127.278059,1.69614707 128.736764,3 130.5,3 C132.263236,3 133.721941,1.69614707 133.964556,1.13659082e-13 L136.035444,1.13686838e-13 C136.278059,1.69614707 137.736764,3 139.5,3 C141.263236,3 142.721941,1.69614707 142.964556,3.02174952e-13 Z" id="合并形状" fill="#FFFFFF"></path>
                <path d="M11.5,19 L134,19" id="直线" stroke="#FFA200" stroke-width="0.5" stroke-linecap="square" stroke-dasharray="2"></path>
            </g>
        </g>
    </g>
</svg>